<?xml version="1.0" encoding="utf-8"?>
<!-- Generator: Adobe Illustrator 27.9.0, SVG Export Plug-In . SVG Version: 6.00 Build 0)  -->
<svg version="1.1" id="Capa_1" xmlns="http://www.w3.org/2000/svg" xmlns:xlink="http://www.w3.org/1999/xlink" x="0px" y="0px"
	 viewBox="0 0 74 38" style="enable-background:new 0 0 74 38;" xml:space="preserve">
<style type="text/css">
	.st0{fill:none;}
	.st1{fill:url(#SVGID_1_);}
	.st2{fill:url(#SVGID_00000156584036131460730250000006159822367141878664_);}
	.st3{fill:url(#SVGID_00000111890771873276573220000001458183367961068454_);}
	.st4{fill:url(#SVGID_00000172425472126193545750000015740426095119566252_);}
</style>
<rect x="0.5" y="2.8" class="st0" width="32.5" height="32.5"/>
<g>
	<linearGradient id="SVGID_1_" gradientUnits="userSpaceOnUse" x1="-10.7136" y1="33.2754" x2="55.6394" y2="-0.254">
		<stop  offset="0" style="stop-color:#805835"/>
		<stop  offset="0.3718" style="stop-color:#D4A86B"/>
		<stop  offset="0.7496" style="stop-color:#F8ECB3"/>
		<stop  offset="1" style="stop-color:#D4A96B"/>
	</linearGradient>
	<path class="st1" d="M30.2,32.9l-6.3-14c-0.2-0.4-0.6-1.1-0.9-1.5l-1.2-1.5c-0.2-0.3-0.3-0.9-0.1-1.2c0.1-0.1,1.5-2.6,1.6-3.5
		c0.1-0.9,0.2-2.8,0.2-2.8c0-0.4,0.3-1.1,0.5-1.5L25.6,5c0.3-0.4,0.6-1.1,0.6-1.5c0-0.2-0.1-0.4-0.2-0.5c-0.1-0.1-0.2-0.2-0.4-0.2
		c-0.1,0-0.3,0-0.5,0.1l-7.7,4.5c-0.2,0.1-0.4,0.2-0.7,0.2s-0.5-0.1-0.7-0.2L8.4,2.9C8.2,2.8,8.1,2.8,7.9,2.8
		c-0.2,0-0.3,0.1-0.4,0.2C7.5,3,7.4,3.2,7.4,3.4C7.4,3.9,7.7,4.5,8,5l1.5,1.9c0.3,0.4,0.5,1,0.5,1.5c0,0,0.1,1.8,0.2,2.7
		c0.1,1,1.6,3.6,1.7,3.7c0.2,0.4,0.2,0.9-0.1,1.2l-1.2,1.5c-0.3,0.4-0.7,1.1-0.9,1.5l-6.3,14c-0.1,0.3-0.1,0.5,0,0.7
		C3.5,33.9,3.7,34,4,34h0.3c0.4,0,1.2,0.2,1.6,0.4l1.4,0.7c0.2,0.1,0.5,0.2,0.9,0.2c0.3,0,0.6-0.1,0.9-0.2l1.4-0.7
		c0.2-0.1,0.4-0.2,0.7-0.2s0.5,0.1,0.7,0.2l1.4,0.7c0.2,0.1,0.5,0.2,0.9,0.2s0.6-0.1,0.9-0.2l1.4-0.7c0.2-0.1,0.4-0.2,0.7-0.2
		c0.3,0,0.5,0.1,0.7,0.2l1.4,0.7c0.2,0.1,0.5,0.2,0.9,0.2s0.6-0.1,0.9-0.2l1.4-0.7c0.2-0.1,0.4-0.2,0.7-0.2c0.3,0,0.5,0.1,0.7,0.2
		l1.4,0.7c0.2,0.1,0.5,0.2,0.9,0.2c0.3,0,0.6-0.1,0.9-0.2l1.4-0.7c0.4-0.2,1.1-0.4,1.6-0.4h0.3c0.3,0,0.5-0.1,0.7-0.3
		C30.3,33.5,30.3,33.2,30.2,32.9z"/>
</g>
<rect x="36.2" y="0.4" class="st0" width="37.3" height="37.3"/>
<g>
	
		<linearGradient id="SVGID_00000042699579558599538920000012305781349622226845_" gradientUnits="userSpaceOnUse" x1="-2.5378" y1="49.4547" x2="63.8151" y2="15.9253">
		<stop  offset="0" style="stop-color:#805835"/>
		<stop  offset="0.3718" style="stop-color:#D4A86B"/>
		<stop  offset="0.7496" style="stop-color:#F8ECB3"/>
		<stop  offset="1" style="stop-color:#D4A96B"/>
	</linearGradient>
	<path style="fill:url(#SVGID_00000042699579558599538920000012305781349622226845_);" d="M73.5,30.4l-4.7-21
		c-0.3-1.4-1.3-2.6-2.6-3.2l-5.3-2.5l-6.1,15.5L48.8,3.6l-5.3,2.5c-1.3,0.6-2.2,1.8-2.6,3.2l-4.7,21c-0.1,0.4,0.2,0.8,0.6,0.9
		l3.9,0.9c0.4,0.1,0.8-0.2,0.9-0.6l3.5-14.2l1,7l-1.9,8.7c-0.1,0.3,0,0.5,0.2,0.8c0.2,0.2,0.4,0.4,0.7,0.4l8.5,1.2l1.2-3.4l1.2,3.4
		l8.5-1.2c0.3,0,0.5-0.2,0.7-0.4c0.2-0.2,0.2-0.5,0.2-0.8l-1.9-8.7l1-7l3.5,14.2c0.1,0.4,0.5,0.7,0.9,0.6l3.9-0.9
		C73.3,31.2,73.6,30.8,73.5,30.4z M54.9,29.1c-0.4,0-0.7-0.3-0.7-0.7c0-0.4,0.3-0.7,0.7-0.7c0.4,0,0.7,0.3,0.7,0.7
		C55.6,28.8,55.3,29.1,54.9,29.1z M54.9,24.2c-0.4,0-0.7-0.3-0.7-0.7c0-0.4,0.3-0.7,0.7-0.7c0.4,0,0.7,0.3,0.7,0.7
		C55.6,23.8,55.3,24.2,54.9,24.2z"/>
	
		<linearGradient id="SVGID_00000093167643831186244700000011423444921426188705_" gradientUnits="userSpaceOnUse" x1="-9.1945" y1="36.2816" x2="57.1585" y2="2.7522">
		<stop  offset="0" style="stop-color:#805835"/>
		<stop  offset="0.3718" style="stop-color:#D4A86B"/>
		<stop  offset="0.7496" style="stop-color:#F8ECB3"/>
		<stop  offset="1" style="stop-color:#D4A96B"/>
	</linearGradient>
	<path style="fill:url(#SVGID_00000093167643831186244700000011423444921426188705_);" d="M55.9,5.2l0.2-0.9l-0.4-1.7h-1.8l-0.4,1.7
		l0.2,0.9H55.9z"/>
	
		<linearGradient id="SVGID_00000074414714849862193100000001116479616961895831_" gradientUnits="userSpaceOnUse" x1="-6.1713" y1="42.2643" x2="60.1816" y2="8.7349">
		<stop  offset="0" style="stop-color:#805835"/>
		<stop  offset="0.3718" style="stop-color:#D4A86B"/>
		<stop  offset="0.7496" style="stop-color:#F8ECB3"/>
		<stop  offset="1" style="stop-color:#D4A96B"/>
	</linearGradient>
	<path style="fill:url(#SVGID_00000074414714849862193100000001116479616961895831_);" d="M56.3,13.2L56,6.5h-2.3l-0.3,6.7l1.4,3.8
		L56.3,13.2z"/>
</g>
</svg>
