<?xml version="1.0" encoding="UTF-8"?>
<svg id="PRINT" xmlns="http://www.w3.org/2000/svg" xmlns:xlink="http://www.w3.org/1999/xlink" viewBox="0 0 506.12 601.41">
  <defs>
    <linearGradient id="Degradado_sin_nombre_20" data-name="Degradado sin nombre 20" x1="4.06" y1="473.05" x2="356.76" y2="219.48" gradientUnits="userSpaceOnUse">
      <stop offset="0" stop-color="#76593a"/>
      <stop offset=".37" stop-color="#c8a76e"/>
      <stop offset=".75" stop-color="#f5ecb5"/>
      <stop offset="1" stop-color="#c8a76e"/>
    </linearGradient>
    <linearGradient id="Degradado_sin_nombre_20-2" data-name="Degradado sin nombre 20" x1="45.32" y1="530.44" x2="398.02" y2="276.86" xlink:href="#Degradado_sin_nombre_20"/>
    <linearGradient id="Degradado_sin_nombre_20-3" data-name="Degradado sin nombre 20" x1="27.92" y1="506.24" x2="380.62" y2="252.66" xlink:href="#Degradado_sin_nombre_20"/>
    <linearGradient id="Degradado_sin_nombre_20-4" data-name="Degradado sin nombre 20" x1="67.04" y1="560.65" x2="419.74" y2="307.07" xlink:href="#Degradado_sin_nombre_20"/>
    <linearGradient id="Degradado_sin_nombre_20-5" data-name="Degradado sin nombre 20" x1="-60.87" y1="382.74" x2="291.83" y2="129.16" xlink:href="#Degradado_sin_nombre_20"/>
    <linearGradient id="Degradado_sin_nombre_20-6" data-name="Degradado sin nombre 20" x1="-110.34" y1="313.93" x2="242.36" y2="60.35" xlink:href="#Degradado_sin_nombre_20"/>
    <linearGradient id="Degradado_sin_nombre_20-7" data-name="Degradado sin nombre 20" x1="-85.08" y1="349.07" x2="267.62" y2="95.49" xlink:href="#Degradado_sin_nombre_20"/>
    <linearGradient id="Degradado_sin_nombre_20-8" data-name="Degradado sin nombre 20" x1="-97.59" y1="331.67" x2="255.13" y2="78.09" xlink:href="#Degradado_sin_nombre_20"/>
  </defs>
  <path d="m418.36,332.84h-19.35c-2.53-39.34-17.49-72.83-45.97-99.91-18.75-17.83-40.8-29.73-66.17-35.41,27.65,11.62,51.76,27.93,69.93,52.16,18.33,24.46,26.78,52.26,28.06,83.02H87.28c3.76-53.48,25.9-97.18,69.94-127.37,58.24-39.92,119.92-42.36,180.82-6.65,50.28,29.49,75.68,75.67,80.31,134.15Z" style="fill: url(#Degradado_sin_nombre_20); stroke-width: 0px;"/>
  <path d="m166.41,523.81c-9.32-18.07-18.5-35.87-27.72-53.75,4.73-3.07,9.24-5.74,13.46-8.8,7.46-5.4,11.63-12.67,12.07-22.06.47-9.95,1.26-19.89,1.82-29.84.52-9.34-2.45-17.47-8.83-24.34-.62-.66-1.23-1.33-1.8-2.04-2.81-3.52-6.69-7.02-4.15-11.99,2.65-5.18,8-4.25,12.63-3.86,7.38.62,13.09,4.67,16.87,10.69,5.19,8.26,9.63,17,14.4,25.52,1.85,3.31,3.36,6.89,5.66,9.85,6.99,8.98,16.25,11.77,27.14,8.69,28.66-8.12,55.16-20.6,79.53-37.96,9.16-6.53,19.63-11.59,30.15-15.67,5.06-1.96,11.69-.63,17.42.34,1.95.33,4.55,4.05,4.62,6.29.07,2.13-2.36,5.69-4.41,6.33-23.14,7.28-40.34,23.11-55.66,40.5-31.03,35.2-69.28,60.91-108.19,85.96-8.21,5.29-16.41,10.59-25.01,16.14Z" style="fill: url(#Degradado_sin_nombre_20-2); stroke-width: 0px;"/>
  <path d="m253.01,338.9c74.18,0,148.36-.01,222.53.03,3.78,0,9.07-1.22,9.39,4.51.33,5.85-4.94,5.67-9.09,6.02-13.37,1.13-26.77,1.95-40.09,3.48-4.34.5-8.44,2.88-12.7,4.26-4.33,1.41-8.72,3.78-13.09,3.79-80.89.23-161.78.16-242.66.16-24.12,0-48.25.16-72.36-.16-3.88-.05-8.26-1.44-11.48-3.6-6.95-4.66-14.71-4.77-22.41-5.49-10.65-1-21.33-1.66-31.99-2.5-1.44-.11-3.24-.02-4.19-.82-1.62-1.38-3.79-3.47-3.7-5.14.09-1.56,2.61-3.41,4.47-4.31,1.48-.72,3.56-.21,5.37-.21,74,0,147.99,0,221.99,0Z" style="fill: url(#Degradado_sin_nombre_20-3); stroke-width: 0px;"/>
  <path d="m168.76,543.01c-16.99,10.05-33.49,19.82-50.44,29.84-12.86-25.68-25.58-51.07-38.5-76.88,17.52-7.96,34.64-15.74,52.42-23.81,12.19,23.65,24.26,47.06,36.53,70.86Zm-18.48-4.49c-3.2-2.19-5.2-4.63-6.92-4.45-1.72.19-4.35,3-4.36,4.67,0,1.55,2.84,4.23,4.58,4.35,1.72.12,3.62-2.33,6.7-4.58Z" style="fill: url(#Degradado_sin_nombre_20-4); stroke-width: 0px;"/>
  <path d="m261.3,171.12h-17.17c-3.27-5.02-6.47-9.28-8.86-13.95-.9-1.76-.79-5.08.33-6.65,7.09-9.97,27.6-9.76,34.51.32,1.03,1.51,1.16,4.63.29,6.25-2.48,4.65-5.69,8.91-9.09,14.03Z" style="fill: url(#Degradado_sin_nombre_20-5); stroke-width: 0px;"/>
  <path d="m226.12,121.24c2.23-6.65.3-12.59-2.99-18.17-4.59-7.79-9.62-15.32-14.11-23.17-5.27-9.2-9.4-18.79-7.46-29.86,1.8-10.28,8.53-16.63,17.2-21.48-.25.37-.46.79-.77,1.1-12.16,11.91-15.33,24.01-4.84,43.89,4.39,8.31,9.47,16.25,14.14,24.41,4.48,7.81,4.11,17.11-1.17,23.27Z" style="fill: url(#Degradado_sin_nombre_20-6); stroke-width: 0px;"/>
  <path d="m292.5,28.66c-.69.99-.98,1.59-1.43,2.02-12.38,12.12-12.93,25.57-4.5,41.72,4.44,8.49,9.62,16.59,14.42,24.9,4.97,8.61,4.63,18.29-1.41,24.82,3.08-8.32.2-14.87-3.58-21.19-4.92-8.23-10.34-16.2-14.75-24.69-2.7-5.2-4.55-11.05-5.67-16.82-2.41-12.43,4.58-24.9,16.91-30.76Z" style="fill: url(#Degradado_sin_nombre_20-7); stroke-width: 0px;"/>
  <path d="m255.39,29.04c-6.94,7.4-12.77,15.46-10.92,26.1,1.12,6.47,3.41,12.94,6.32,18.84,4.22,8.58,9.65,16.56,14.24,24.97,4.27,7.81,3.31,17.45-2.27,23.03,2.84-7.42.78-13.68-2.72-19.58-4.7-7.93-9.83-15.62-14.32-23.67-2.53-4.54-4.61-9.45-6.05-14.44-4.24-14.74,1.74-28.09,15.71-35.25Z" style="fill: url(#Degradado_sin_nombre_20-8); stroke-width: 0px;"/>
</svg>