<?xml version="1.0" encoding="utf-8"?>
<!-- Generator: Adobe Illustrator 27.9.0, SVG Export Plug-In . SVG Version: 6.00 Build 0)  -->
<svg version="1.1" id="Capa_1" xmlns="http://www.w3.org/2000/svg" xmlns:xlink="http://www.w3.org/1999/xlink" x="0px" y="0px"
	 viewBox="0 0 226 32" style="enable-background:new 0 0 226 32;" xml:space="preserve">
<style type="text/css">
	.st0{clip-path:url(#SVGID_00000150081236876233756890000004536702738910229912_);}
	.st1{fill:url(#SVGID_00000021842118150416093610000014221912980453838507_);}
</style>
<g>
	<defs>
		<rect id="SVGID_1_" x="0.7" y="0.7" width="224.7" height="30.9"/>
	</defs>
	<clipPath id="SVGID_00000065789544644387749730000015082153132569967764_">
		<use xlink:href="#SVGID_1_"  style="overflow:visible;"/>
	</clipPath>
	<g style="clip-path:url(#SVGID_00000065789544644387749730000015082153132569967764_);">
		
			<linearGradient id="SVGID_00000038399482584060122880000002565271171784225189_" gradientUnits="userSpaceOnUse" x1="0.6617" y1="16.1194" x2="225.3284" y2="16.1194">
			<stop  offset="0" style="stop-color:#805835"/>
			<stop  offset="0.3718" style="stop-color:#D4A86B"/>
			<stop  offset="0.7496" style="stop-color:#F8ECB3"/>
			<stop  offset="1" style="stop-color:#D4A96B"/>
		</linearGradient>
		<path style="fill:url(#SVGID_00000038399482584060122880000002565271171784225189_);" d="M224.9,1.9c-1,0.2-2,0.7-2.9,1
			c-1,0.4-1.9,0.8-2.9,1.2c-1.9,0.8-3.7,1.6-5.5,2.5c-3.6,1.8-6.9,4-10.3,6.3c-1.7,1.1-3.4,2.2-5.1,3.1c-1.4,0.3-2.8,0.6-4.2,0.8
			c-4,0.6-8.4,0.9-12.4-0.2c-2.3-0.6-4.5-1.7-6.7-2.8c-0.2-0.1-0.4-0.2-0.5-0.3c2,0.6,4,0.8,6,0.8c2-0.1,4-0.5,5.9-1.2
			c0.9-0.4,1.9-0.8,2.8-1.2c0.9-0.5,1.9-0.9,2.8-1.5c0.1-0.1,0.2-0.3,0.1-0.4c0.1-0.1,0-0.2-0.1-0.3c-0.8-0.5-1.8-0.7-2.8-0.8
			c-1-0.2-1.9-0.3-2.9-0.3c-2.1-0.1-4.1,0.2-6.1,0.6c-4.2,0.9-8.4,2.2-12.7,1.5c-4-1.4-8.2-2.3-12.5-2.4c2.5-1.1,4.9-2.2,7.5-2.9
			c3.4-1,6.7-1.2,10.2-0.7c-0.1,0.4-0.1,0.8,0,1.2c0.1,0.5,0.4,1.1,0.9,1.2c0.2,0.1,0.3-0.1,0.3-0.3c0.9,0.4,1.8,0.5,2.8,0.2
			c0.5-0.1,1-0.3,1.4-0.7c0.2-0.1,0.4-0.3,0.5-0.5c0-0.1,0-0.1-0.1-0.2c0.2,0,0.3-0.2,0.3-0.4c0.1,0,0.1-0.1,0.1-0.2
			c-0.3-0.8-1.1-1.3-1.8-1.7c-0.5-0.3-1.1-0.5-1.8-0.5c0,0,0,0,0,0c0.2-0.1,0.1-0.4-0.1-0.4c-0.3,0-0.5,0-0.8,0.1
			c-0.2,0.1-0.5,0.2-0.7,0.4c-0.4,0.2-0.7,0.5-0.9,0.9c-3.4-0.9-7.1-0.3-10.3,0.6c-3.1,0.9-6,2.2-8.8,3.6c-4.8,0.1-9.3,1.5-13.8,3.1
			c-1.4-1.1-2.4-2.5-3.7-3.8c-1.3-1.3-2.8-2.3-4.3-3.2c-3.5-1.9-7.5-2.9-11.5-3.6c-0.1,0-0.2,0.1-0.2,0.1c0,0,0,0.1,0,0.1
			c0.3,0.8,1.1,1.5,1.7,2.2c0.6,0.7,1.3,1.5,1.9,2.2c1.2,1.4,2.4,2.8,4,3.8c1.5,1,3.3,1.7,5,2.3c0.9,0.3,1.8,0.5,2.7,0.6
			c0.8,0.1,1.4,0.1,2.2,0c-2.7,1-5.4,2.1-8.2,3c-4,1.3-8.3,2.3-12.5,2c-0.9,0-1.9-0.2-2.8-0.4c1.5-0.8,2.8-2.2,3.1-4
			c0.3-1.5,0-3.1-1.6-3.7c-0.8-0.3-1.7-0.1-2.5,0.3c-0.3,0.2,0,0.6,0.3,0.5c0.9-0.4,1.9-0.3,2.7,0.4c0.6,0.6,0.5,1.5,0.4,2.2
			c-0.4,1.9-1.9,3.2-3.6,3.9c-0.8-0.3-1.5-0.7-2.1-1.3c-0.7-0.7-1.3-1.6-1.5-2.6c-0.2-0.8-0.2-1.7,0.4-2.3c0.7-0.7,1.7-0.8,2.6-0.4
			c0.3,0.1,0.6-0.3,0.3-0.5c-1.3-0.7-3.1-0.5-3.9,0.9c-0.9,1.7,0.1,3.9,1.2,5.2c0.5,0.6,1.1,1,1.7,1.3c-4,1-8.4,0.3-12.3-0.7
			c-3.8-1-7.5-2.5-11.2-3.9c0.7,0.1,1.4,0.1,2.2,0c0.9-0.1,1.7-0.3,2.6-0.6c1.8-0.5,3.6-1.3,5.1-2.3c1.5-1,2.7-2.4,3.9-3.8
			c0.7-0.8,1.3-1.5,2-2.3c0.6-0.7,1.4-1.4,1.7-2.2c0-0.1,0-0.1,0-0.1c0-0.1-0.1-0.1-0.2-0.1c-3.9,0.6-8,1.6-11.5,3.6
			c-1.6,0.9-3.1,1.9-4.3,3.2c-1.3,1.3-2.3,2.7-3.7,3.8c-3.6-1.3-7.2-2.4-11-2.9c-0.9-0.1-1.8-0.2-2.8-0.2c-2.8-1.5-5.7-2.8-8.8-3.6
			C60,3.6,56.3,3,53,3.9c-0.3-0.3-0.6-0.6-0.9-0.9c-0.2-0.2-0.5-0.3-0.7-0.4c-0.2-0.1-0.5-0.1-0.8-0.1c-0.2,0-0.3,0.3-0.1,0.4
			c0,0,0,0,0,0c-0.6,0-1.2,0.2-1.8,0.5C48,3.8,47.3,4.3,47,5.1c0,0.1,0,0.2,0.1,0.2c0,0.2,0.1,0.3,0.3,0.4c0,0.1-0.1,0.1,0,0.2
			c0,0.2,0.3,0.3,0.4,0.4c0.4,0.3,0.9,0.6,1.5,0.7c0.9,0.2,1.9,0.1,2.8-0.2c0,0.2,0.2,0.3,0.3,0.3c0.5-0.2,0.8-0.8,0.9-1.2
			c0.1-0.4,0.1-0.8,0-1.2C56.6,4,60,4.3,63.4,5.2C66,6,68.4,7.1,70.9,8.1c-3.4,0-6.8,0.6-10,1.6c-0.8,0.2-1.7,0.5-2.5,0.8
			c-4.3,0.7-8.5-0.7-12.7-1.5c-2-0.4-4-0.7-6-0.6c-1,0-1.9,0.1-2.9,0.3C35.9,8.9,34.8,9,34,9.6c-0.1,0.1-0.1,0.2-0.1,0.3
			c0,0.1,0,0.3,0.1,0.4c0.9,0.6,1.9,1.1,2.8,1.5c0.9,0.5,1.8,0.9,2.8,1.2c1.9,0.7,3.9,1.2,5.9,1.2c2,0.1,4.1-0.2,6-0.8
			c-1.2,0.6-2.5,1.3-3.8,1.8c-2.3,1-4.7,1.7-7.3,1.9c-2.3,0.2-4.6,0.1-6.9-0.2c-2-0.2-3.9-0.6-5.9-1c-3.3-1.7-6.3-3.9-9.5-6
			c-3.4-2.2-7.1-4.1-10.9-5.7c-1-0.4-2-0.8-3.1-1.2c-1.1-0.4-2.2-1-3.4-1.2C0.7,1.8,0.5,2.3,0.8,2.4c0,0,0.1,0,0.1,0.1
			C1.8,4.4,3,6.1,4.4,7.6c1.4,1.6,2.9,3,4.6,4.2c3.5,2.6,7.6,4.3,11.8,4.9c2.5,0.4,5,0.5,7.5,0.4c1.3,0.3,2.6,0.5,4,0.7
			c4.3,0.6,9,0.8,13.2-0.6c2.4-0.7,4.6-1.9,6.8-3c2.3-1.2,4.7-2.2,7.1-3.1c0.2-0.1,0.4-0.1,0.6-0.2c-2.4,1.4-4.8,3-6.8,5
			c-1.3,1.3-2.5,2.8-3.4,4.4c-0.5,0.9-0.8,1.8-1.2,2.7c-0.3,0.9-0.6,1.9-0.6,2.8c0,0.4,0.5,0.4,0.6,0.1c3.9,0.1,7-2.6,9-5.7
			c1.1-1.8,2-3.7,2.9-5.6c0.5-1,1-1.9,1.5-2.9c0.4-0.7,0.8-1.3,1.4-1.8c3.6-0.8,7.3-1.2,11-0.8c0.1,0,0.1,0,0.2,0
			c-2.1,3.6-5.1,7-8.6,9.2c-0.2-0.4-0.5-0.7-0.8-1c-0.2-0.1-0.4-0.3-0.6-0.4c-0.2-0.1-0.6-0.1-0.8-0.1c-0.2,0.1-0.2,0.3-0.1,0.4
			c-0.9,0.2-1.7,0.8-2.2,1.5c-0.3,0.4-0.5,0.8-0.7,1.3c-0.1,0.2-0.2,0.5-0.1,0.8c0,0.1,0.1,0.1,0.2,0.1c-0.1,0.1-0.1,0.3,0,0.5
			c0,0.1,0,0.1,0,0.2c0.8,0.4,1.7,0.4,2.5,0.2c0.6-0.1,1.2-0.4,1.7-0.7v0c-0.1,0.2,0.1,0.4,0.3,0.2c0.4-0.3,0.7-0.8,0.8-1.3
			c0.1-0.4,0.2-0.8,0.2-1.3c0.9-0.4,1.7-1,2.4-1.6c1-0.8,1.9-1.7,2.7-2.7c1.4-1.7,2.9-3.5,3.7-5.5c0.4,0.1,0.9,0.1,1.3,0.2
			c0.5,0.2,0.9,0.5,1.3,0.7c0,1.7,0.6,3.4,1.3,5c0.7,1.6,1.6,3,2.7,4.4c2.2,2.8,5,5,8.2,6.4c1.8,0.8,3.7,1.3,5.7,1.5
			c0.1,0,0.2-0.1,0.2-0.2c0.1-0.1,0.1-0.2,0-0.3c-1.5-1.5-2.4-3.5-3.6-5.3c-1.2-1.8-2.4-3.6-3.8-5.2c-2.5-2.9-5.7-5.3-9.5-6.3
			c0,0,0,0,0,0c-0.2-0.1-0.3-0.2-0.5-0.3c4.9,1.1,9.6,3.1,14.4,4.9c0,0,0,0,0,0c0.6,0.7,1.1,1.4,1.7,2.1c0,0.8,0.6,1.7,1,2.4
			c0.4,0.9,0.9,1.8,1.5,2.6c1.1,1.6,2.5,3,4.1,4.1c1.7,1.2,3.4,2.4,5.2,3.4c0.9,0.5,1.7,0.9,2.7,1.3c0.8,0.3,1.9,0.9,2.8,0.8
			c0.2,0,0.3-0.2,0.2-0.4c0,0,0,0,0-0.1c-0.6-1.8-1.8-3.3-2.9-4.8c-1.2-1.5-2.5-2.9-4-4.2c-2.9-2.5-6.2-4.4-9.8-5.5c0,0-0.1,0-0.1,0
			c-0.4-0.5-0.8-1-1.3-1.5c2.2,0.8,4.4,1.5,6.6,2c2.2,0.5,4.4,0.8,6.6,0.9c2,0,4.1-0.1,6-0.8c0.9,0.3,1.8,0.5,2.7,0.6
			c2.2,0.3,4.4,0.2,6.6-0.1c3.4-0.5,6.7-1.5,9.9-2.6c-0.4,0.5-0.8,1-1.2,1.4c0,0-0.1,0-0.1,0c-3.7,1.1-7,3-9.8,5.5
			c-1.5,1.3-2.8,2.7-4,4.2c-1.1,1.4-2.3,3-2.9,4.8c0,0,0,0.1,0,0.1c-0.1,0.1,0,0.3,0.2,0.4c0.9,0.1,2-0.5,2.8-0.8
			c0.9-0.4,1.8-0.8,2.7-1.3c1.8-1,3.5-2.2,5.2-3.4c1.6-1.1,3-2.5,4.1-4.1c0.5-0.8,1-1.7,1.5-2.6c0.3-0.7,0.9-1.6,1-2.4
			c0.6-0.7,1.2-1.4,1.7-2.1c4.8-1.8,9.4-3.8,14.4-4.9c-0.2,0.1-0.3,0.2-0.4,0.2c0,0,0,0,0,0c-3.8,1-7,3.4-9.5,6.3
			c-1.4,1.6-2.6,3.4-3.8,5.2c-1.1,1.8-2.1,3.8-3.6,5.3c-0.1,0.1-0.1,0.2,0,0.3c0,0.1,0.1,0.2,0.2,0.2c7-0.8,13.2-5.4,16.3-11.6
			c0.8-1.7,1.6-3.7,1.6-5.6c0.4-0.2,0.8-0.5,1.3-0.7c0.4-0.1,0.9-0.1,1.4-0.2c0.9,2,2.3,3.8,3.7,5.5c0.8,0.9,1.7,1.8,2.7,2.7
			c0.7,0.6,1.5,1.2,2.4,1.6c0,0.4,0.1,0.9,0.2,1.3c0.2,0.5,0.4,1,0.8,1.3c0.2,0.1,0.4,0,0.3-0.2c0,0,0,0,0,0
			c0.5,0.3,1.1,0.6,1.7,0.7c0.8,0.2,1.7,0.2,2.5-0.2c0.1,0,0.1-0.1,0.1-0.2c0.1-0.1,0.1-0.3,0-0.5c0.1,0,0.1-0.1,0.2-0.2
			c0.1-0.2,0-0.5-0.1-0.8c-0.2-0.5-0.4-0.9-0.7-1.3c-0.6-0.7-1.4-1.2-2.2-1.5c0.1-0.1,0.1-0.4-0.1-0.4c-0.2-0.1-0.5,0-0.8,0.1
			c-0.2,0.1-0.5,0.2-0.7,0.4c-0.3,0.3-0.6,0.6-0.8,1c-3.5-2.3-6.5-5.6-8.6-9.2c3.7-0.4,7.5-0.1,11.2,0.7c0.6,0.5,1,1.2,1.4,1.8
			c0.5,0.9,1,1.9,1.5,2.9c0.9,1.9,1.8,3.8,2.9,5.6c2,3.1,5.1,5.8,9,5.7c0.1,0.3,0.6,0.3,0.6-0.1c0-0.9-0.3-1.9-0.6-2.8
			c-0.3-0.9-0.7-1.8-1.2-2.7c-0.9-1.6-2-3.1-3.4-4.4c-2-1.9-4.4-3.5-6.8-5c1.5,0.5,2.9,1,4.3,1.6c2.3,1,4.5,2.2,6.8,3.3
			c2.2,1,4.5,1.8,7,2.1c2.6,0.3,5.3,0.2,7.9,0c1.9-0.2,3.8-0.5,5.6-0.9c4.5,0.2,9-0.2,13.2-1.9c3.9-1.5,7.4-3.9,10.2-7
			c1.6-1.7,3.1-3.6,4-5.7c0.1,0,0.1,0,0.1-0.1C225.5,2.3,225.3,1.8,224.9,1.9L224.9,1.9z M174.9,3.2C174.9,3.2,174.9,3.2,174.9,3.2
			c0.8,0,1.5,0.2,2.2,0.5c0.6,0.3,1.1,0.9,1.6,1.4c0,0,0,0,0,0c0.1,0.2-0.1,0.3-0.2,0.3c-0.1,0-0.2,0.1-0.1,0.2c0,0,0,0,0,0
			c0,0,0,0,0,0c0.2,0-0.1,0.3-0.2,0.3c-0.1,0.1-0.2,0.1-0.3,0.2c-0.2,0.1-0.4,0.2-0.6,0.3c-0.4,0.1-0.7,0.3-1.1,0.3
			c-0.8,0.2-1.6,0.1-2.3-0.3c-0.1-0.1-0.1-0.3-0.2-0.4c0,0,0-0.1-0.1-0.1c0,0,0,0,0-0.1c0-0.1-0.1-0.2-0.1-0.3c0-0.1,0-0.2-0.1-0.3
			c0.1,0.1,0.1,0.2,0.2,0.4c0.1,0.2,0.2,0.3,0.4,0.5c0.1,0.2,0.3,0.3,0.4,0.4c0.1,0.1,0.3,0.1,0.4,0c0.1-0.1,0.1-0.3,0-0.4
			c-0.1-0.1-0.2-0.3-0.4-0.4c-0.1-0.1-0.1-0.1-0.2-0.2c0,0,0,0,0,0c0,0,0,0,0-0.1c0,0-0.1-0.1-0.1-0.1c-0.1-0.1-0.1-0.2-0.2-0.3
			c0,0,0.1,0,0.1,0.1c0.2,0.1,0.3,0.1,0.5,0.1c0.1,0,0.2,0,0.3,0c0.1,0,0.2,0,0.3,0c0.1,0,0.2-0.1,0.2-0.2c0-0.1-0.1-0.2-0.2-0.2
			c-0.2-0.1-0.3-0.1-0.5-0.2c-0.2-0.1-0.3-0.1-0.5-0.2c0,0-0.1,0-0.1,0c0,0,0,0,0,0c0,0,0,0-0.1,0c0,0-0.1,0-0.1-0.1
			c0.2-0.1,0.4-0.1,0.6-0.2c0.2,0,0.3,0,0.5-0.1c0.2,0,0.4-0.1,0.6-0.1c0.2-0.1,0.2-0.4,0-0.5c-0.2-0.1-0.4-0.1-0.7-0.1
			c-0.2,0-0.5,0-0.7,0.1c-0.1,0-0.1,0-0.2,0.1C174.5,3.4,174.7,3.3,174.9,3.2L174.9,3.2z M52.4,5.9L52.4,5.9
			C52.4,5.9,52.3,5.9,52.4,5.9c0,0.1-0.1,0.2-0.1,0.2c-0.1,0.1-0.2,0.3-0.2,0.4c-0.7,0.3-1.5,0.4-2.3,0.3c-0.4-0.1-0.7-0.2-1.1-0.3
			c-0.2-0.1-0.4-0.2-0.6-0.3C47.9,6.1,47.9,6,47.8,6c0,0-0.3-0.3-0.2-0.3c0,0,0,0,0,0c0,0,0,0,0,0c0.1,0,0-0.2-0.1-0.2
			c-0.2,0-0.3-0.1-0.2-0.3c0,0,0,0,0,0c0.5-0.5,0.9-1.1,1.6-1.4c0.7-0.4,1.4-0.6,2.1-0.6c0,0,0,0,0,0c0.2,0.1,0.4,0.2,0.6,0.3
			c-0.1,0-0.1,0-0.2-0.1c-0.2-0.1-0.5-0.1-0.7-0.1s-0.4,0-0.7,0.1c-0.2,0.1-0.2,0.4,0,0.5c0.2,0.1,0.4,0.1,0.6,0.1
			c0.2,0,0.4,0,0.5,0.1c0.2,0,0.4,0.1,0.6,0.2c0,0-0.1,0.1-0.1,0.1c0,0,0,0-0.1,0c0,0,0,0,0,0c0,0-0.1,0-0.1,0
			c-0.2,0.1-0.3,0.1-0.5,0.2c-0.2,0-0.3,0.1-0.5,0.2c-0.1,0-0.2,0.1-0.2,0.2c0,0.1,0.1,0.2,0.2,0.2c0.2,0,0.4,0,0.6,0
			c0.2,0,0.4-0.1,0.5-0.1c0,0,0.1,0,0.1-0.1c-0.1,0.1-0.1,0.2-0.2,0.3c0,0,0,0.1-0.1,0.1c0,0,0,0,0,0.1c0,0,0,0,0,0
			c-0.1,0.1-0.1,0.1-0.2,0.2c-0.1,0.1-0.2,0.3-0.4,0.4c-0.1,0.1-0.1,0.3,0,0.4c0.1,0.1,0.3,0.1,0.4,0c0.1-0.1,0.3-0.2,0.4-0.4
			c0.1-0.2,0.3-0.3,0.4-0.5c0.1-0.1,0.1-0.2,0.2-0.4c0,0.1,0,0.2-0.1,0.3C52.4,5.7,52.4,5.8,52.4,5.9L52.4,5.9z M15.5,14.7
			c-3.8-1.5-7.3-3.9-10.1-6.9C4,6.3,2.9,4.6,1.8,2.9C2.4,3.1,3,3.3,3.6,3.6c1,0.4,1.9,0.7,2.9,1.1c2,0.8,3.9,1.7,5.8,2.6
			c3.6,1.8,6.9,4.1,10.3,6.2c1.1,0.7,2.3,1.4,3.5,2c-0.2-0.1-0.4-0.1-0.6-0.1c-3.3-0.8-6.6-1.9-9.7-3.2C13,11,10.4,9.6,8.1,7.6
			C7.7,7.2,7.2,6.8,6.9,6.3C6.6,5.9,6,6.3,6.3,6.6C7.1,7.8,7.9,8.7,9,9.6c1.3,1,2.7,1.8,4.1,2.5c3.2,1.6,6.5,2.8,9.9,3.8
			c1.1,0.3,2.1,0.6,3.2,0.8C22.6,16.5,19,16,15.5,14.7L15.5,14.7z M45.5,13.6c-2-0.1-3.9-0.6-5.7-1.3c-1.7-0.7-3.2-1.6-4.9-2.4
			c0.7-0.1,1.4-0.4,2.1-0.5c1-0.2,2.1-0.3,3.2-0.3c2.2-0.1,4.3,0.3,6.4,0.7c3.2,0.7,6.5,1.6,9.8,1.4c-0.2,0.1-0.3,0.1-0.5,0.2
			c-2.9,0.7-5.9,0.9-8.9,0.6c-1.8-0.2-3.6-0.5-5.3-0.9c-1.7-0.4-3.4-0.9-5.1-1.4c-0.2-0.1-0.4,0.3-0.2,0.4c3.2,1.4,6.9,2.2,10.4,2.5
			c2,0.2,4,0.2,6-0.1C50.4,13.3,47.9,13.7,45.5,13.6L45.5,13.6z M60.7,13c-1,1.9-1.9,3.8-3,5.7c-1.9,3.3-4.9,6.5-8.9,6.6
			c0.2-0.7,0.3-1.4,0.5-2.1c0.3-0.9,0.7-1.8,1.2-2.7c0.9-1.6,2.1-3,3.4-4.3c2.2-2.2,4.9-3.8,7.5-5.5c-1.7,1.7-3.4,3.4-4.9,5.2
			c-0.8,1-1.6,2-2.4,3c-0.8,1.1-1.7,2.2-2.3,3.5c-0.1,0.2,0.2,0.5,0.3,0.3c0.8-1,1.5-2,2.3-3.1c0.8-1.1,1.7-2.3,2.6-3.4
			c1.7-2.1,3.4-4.1,5.2-6c0.1,0,0.2,0,0.2-0.1C61.7,11.1,61.2,12.1,60.7,13L60.7,13z M63.1,21.8c-0.7,0.1-1.4,0-2.1-0.1c0,0,0,0,0,0
			c-0.2-0.1-0.2-0.3,0-0.4c0.1-0.1,0-0.2-0.1-0.2c0,0,0,0,0,0c-0.1,0.1-0.1-0.3-0.1-0.4c0-0.1,0.1-0.2,0.1-0.3
			c0.1-0.2,0.2-0.4,0.3-0.6c0.2-0.4,0.4-0.7,0.7-1c0.5-0.6,1.2-1,2-1.2c0,0,0.1,0,0.2,0.1c0,0,0,0,0.1,0c0,0,0,0,0,0
			c0.1,0,0.1,0.1,0.2,0.1c0,0,0,0,0,0c0,0,0,0,0.1,0c0.1,0,0.1,0.1,0.1,0.1c0.1,0.1,0.2,0.1,0.3,0.2c0,0,0,0,0.1,0
			c0,0,0.1,0,0.1,0.1c-0.5-0.2-1.1-0.3-1.6-0.3c-0.2,0-0.3,0.1-0.3,0.3c0,0.2,0.1,0.3,0.3,0.3c0.4,0,0.9,0.2,1.3,0.3c0,0,0,0-0.1,0
			c-0.4,0.1-0.7,0.3-1,0.6c-0.1,0.1-0.1,0.2,0,0.3c0,0.1,0.2,0.1,0.3,0.1c0.1,0,0.2-0.1,0.2-0.1c0.1,0,0.1,0,0.2-0.1c0,0,0.1,0,0,0
			c0.2-0.1,0.3-0.1,0.5-0.2c0.1,0,0.2-0.1,0.4-0.1c0,0,0,0,0,0.1c0,0-0.1,0.1-0.1,0.1c0,0,0,0,0,0.1c0,0-0.1,0.1,0,0c0,0,0,0,0,0
			c0,0,0,0,0,0.1c0,0-0.1,0.1-0.1,0.1c-0.1,0.2-0.3,0.3-0.4,0.4c-0.2,0.1-0.3,0.3-0.4,0.5s0.1,0.5,0.3,0.4c0.1,0,0.2-0.1,0.3-0.1
			c0.1-0.1,0.2-0.1,0.3-0.2c0.1-0.1,0.3-0.3,0.4-0.5c0.1-0.1,0.1-0.2,0.2-0.2c-0.1,0.2-0.2,0.5-0.3,0.7
			C64.5,21.3,63.8,21.7,63.1,21.8L63.1,21.8z M104.6,22.8c1.4,1.2,2.6,2.5,3.8,4c1.1,1.3,1.9,2.8,2.9,4.2c-0.2-0.1-0.5-0.1-0.7-0.2
			c-0.5-0.1-0.9-0.3-1.4-0.5c-0.9-0.4-1.7-0.8-2.6-1.3c-1.7-1-3.3-2.1-4.9-3.2c-1.6-1.1-3-2.5-4.2-4.1c-0.5-0.8-1-1.6-1.4-2.4
			c-0.2-0.4-0.4-0.7-0.5-1.1c1.3,1.4,2.7,2.8,4.1,4.1c2.5,2.2,5.1,4.3,8.1,5.8c0.2,0.1,0.4-0.2,0.2-0.3c-2.7-2-5.5-3.8-8-6
			c-1.5-1.3-2.9-2.7-4.3-4.2C99,18.6,102,20.5,104.6,22.8z M89.6,8.4C90.9,7,92.4,5.9,94.1,5c3.4-1.9,7.1-2.9,10.8-3.8
			c-0.5,0.5-1,1.1-1.4,1.6c-0.6,0.7-1.2,1.3-1.7,2c-1.2,1.4-2.3,2.8-3.8,3.8c-2.7,1.9-6.2,3-9.5,3.2c0,0,0,0,0.1,0
			c0.7-0.2,1.3-0.4,2-0.6c1.2-0.4,2.4-1,3.6-1.7c2.4-1.4,4.4-3.1,6.2-5.2c0.1-0.2-0.1-0.4-0.2-0.2c-1.7,2-3.8,3.7-6.1,5
			c-1.1,0.6-2.3,1.2-3.6,1.6c-0.6,0.2-1.3,0.4-1.9,0.6c-0.6,0.1-1.2,0.2-1.8,0.4c0,0-0.1,0-0.1,0C87.8,10.8,88.7,9.5,89.6,8.4
			L89.6,8.4z M88.3,17.4c1.4,1.7,2.6,3.5,3.8,5.3c0.6,0.9,1.1,1.8,1.6,2.7c0.3,0.5,0.7,1,1.2,1.4c-4-0.9-7.7-2.7-10.7-5.5
			c-1.5-1.4-2.8-3.1-3.8-4.9c-1-1.7-2-3.8-2.1-5.9c2.2,1.4,4.2,3.1,5.8,5.2c2,2.7,3.2,6.3,6.3,8c0.1,0.1,0.3-0.1,0.2-0.2
			c-2.7-2.4-4.1-5.8-6.3-8.7c-1.1-1.3-2.3-2.5-3.7-3.6C83.7,12.7,86.2,14.9,88.3,17.4L88.3,17.4z M129.9,19.1
			c-0.4,0.8-0.9,1.6-1.4,2.4c-1.1,1.7-2.6,3-4.2,4.2c-1.6,1.1-3.2,2.2-4.8,3.1c-0.8,0.5-1.7,0.9-2.6,1.3c-0.5,0.2-1,0.4-1.5,0.6
			c-0.2,0.1-0.5,0.1-0.7,0.2c1-1.4,1.8-2.9,2.9-4.2c1.1-1.4,2.4-2.8,3.8-4c2.6-2.3,5.6-4.2,8.9-5.4c-1.4,1.5-2.8,2.9-4.3,4.2
			c-2.5,2.2-5.3,4.1-8,6c-0.2,0.1,0,0.5,0.2,0.3c2.9-1.5,5.6-3.6,8.1-5.8c1.4-1.3,2.8-2.6,4.1-4.1C130.2,18.4,130.1,18.8,129.9,19.1
			L129.9,19.1z M161.2,18.3C161.2,18.3,161.2,18.2,161.2,18.3c0.1-0.1,0.2-0.2,0.3-0.2c0,0,0.1,0,0.1-0.1c0,0,0,0,0.1,0
			c0,0,0.1,0,0,0c0.1,0,0.1,0,0.2-0.1c0,0,0.1,0,0,0c0,0,0.1,0,0.1,0c0.1,0,0.1-0.1,0.2-0.1c0.8,0.2,1.4,0.6,1.9,1.2
			c0.3,0.3,0.5,0.6,0.7,1c0.1,0.2,0.2,0.4,0.3,0.6c0,0.1,0.1,0.2,0.1,0.3c0,0,0.1,0.5,0,0.4c0,0,0,0,0,0c-0.1,0-0.2,0.1-0.1,0.2
			c0.2,0.1,0.2,0.3,0,0.4c0,0,0,0,0,0c-0.7,0.1-1.4,0.2-2.1,0.1c-0.7-0.1-1.4-0.5-2-0.9c-0.1-0.2-0.2-0.5-0.3-0.7
			c0.1,0.1,0.1,0.2,0.2,0.2c0.1,0.2,0.3,0.3,0.4,0.5c0.1,0.1,0.2,0.2,0.3,0.2s0.2,0.1,0.3,0.1c0.2,0.1,0.4-0.2,0.3-0.4
			s-0.2-0.4-0.4-0.5c-0.1-0.1-0.3-0.3-0.4-0.4c-0.1-0.1-0.1-0.1-0.2-0.2c0,0,0,0,0,0c0,0,0,0-0.1-0.1c0,0-0.1-0.1-0.1-0.1
			c0,0,0,0,0,0c0.1,0,0.2,0.1,0.4,0.1c0.2,0.1,0.3,0.1,0.5,0.2c0,0,0,0,0,0c0,0,0,0,0.1,0c0.1,0,0.1,0,0.2,0.1
			c0.1,0,0.2,0.1,0.2,0.1c0.1,0,0.2,0,0.3-0.1c0.1-0.1,0-0.2,0-0.3c-0.3-0.3-0.6-0.5-1-0.6c0,0-0.1,0-0.1,0c0.4-0.2,0.9-0.3,1.3-0.3
			c0.2,0,0.3-0.1,0.3-0.3c0-0.2-0.1-0.3-0.3-0.3c-0.6,0-1.1,0.1-1.6,0.3C161.1,18.3,161.1,18.3,161.2,18.3
			C161.1,18.3,161.2,18.2,161.2,18.3L161.2,18.3z M128,8.6c-1.4-1-2.6-2.4-3.7-3.7c-0.6-0.7-1.2-1.4-1.8-2.1
			c-0.4-0.5-0.9-1.1-1.4-1.6C124.8,2.1,128.6,3,132,5c1.6,0.9,3.1,2,4.3,3.4c1,1.1,1.9,2.5,3.3,3.1c0,0-0.1,0-0.1,0
			c-0.6-0.2-1.2-0.2-1.8-0.4c-0.6-0.2-1.2-0.3-1.8-0.5c-1.3-0.4-2.5-1-3.7-1.6c-2.3-1.3-4.3-3-6.1-5c-0.1-0.2-0.4,0.1-0.2,0.2
			c1.7,2.1,3.8,3.8,6.2,5.2c1.1,0.7,2.3,1.2,3.6,1.7c0.6,0.2,1.2,0.4,1.9,0.6c0.1,0,0.1,0,0.2,0C134.3,11.5,130.7,10.4,128,8.6
			L128,8.6z M145.6,16.5c-1,1.8-2.3,3.4-3.8,4.9c-3,2.8-6.7,4.7-10.7,5.5c1.2-1,1.9-2.7,2.7-4c1.2-1.9,2.4-3.7,3.8-5.4
			c2.1-2.5,4.6-4.7,7.7-6c-1.4,1-2.6,2.2-3.6,3.6c-2.2,2.8-3.6,6.2-6.3,8.7c-0.1,0.1,0,0.3,0.2,0.2c3.1-1.7,4.3-5.3,6.3-8
			c1.6-2.1,3.6-3.9,5.8-5.2C147.6,12.7,146.6,14.8,145.6,16.5z M179.5,9.9c2.1-0.4,4.1-0.8,6.3-0.7c1.1,0,2.1,0.1,3.2,0.3
			c0.7,0.1,1.4,0.4,2.2,0.5c-1.6,0.7-3.1,1.7-4.8,2.3c-1.9,0.8-3.8,1.2-5.8,1.3c-2.5,0.1-4.9-0.3-7.3-1c2,0.2,4,0.3,6,0.1
			c3.5-0.3,7.2-1,10.4-2.5c0.2-0.1,0.1-0.5-0.2-0.4c-1.7,0.4-3.4,1-5.1,1.4c-1.7,0.4-3.5,0.7-5.3,0.9c-3,0.3-6,0.1-8.9-0.6
			c-0.2-0.1-0.3-0.1-0.5-0.2C173,11.4,176.3,10.6,179.5,9.9z M175.6,20.6c0.5,0.9,0.9,1.8,1.2,2.7c0.2,0.7,0.4,1.4,0.5,2.1
			c-4.1-0.1-7-3.3-8.9-6.6c-1.1-1.8-1.9-3.7-2.9-5.6c-0.5-0.9-1-2-1.8-2.8c0.1,0,0.2,0,0.2,0.1c1.8,1.9,3.6,3.9,5.2,6
			c0.9,1.1,1.7,2.2,2.5,3.3c0.8,1.1,1.5,2.2,2.4,3.2c0.2,0.2,0.4,0,0.3-0.3c-0.6-1.2-1.4-2.3-2.3-3.4c-0.8-1.1-1.6-2.1-2.4-3.1
			c-1.5-1.8-3.2-3.6-4.9-5.2c2.6,1.6,5.3,3.3,7.5,5.5C173.5,17.5,174.7,19,175.6,20.6L175.6,20.6z M221.1,7.2
			c-1.4,1.6-2.9,2.9-4.5,4.1c-3.4,2.5-7.4,4.1-11.5,4.8c-1.8,0.3-3.5,0.4-5.3,0.5c0.2-0.1,0.5-0.1,0.7-0.2c3.5-0.9,6.9-2,10.2-3.4
			c2.8-1.2,5.9-2.7,8-5c0.4-0.5,0.8-1,1.1-1.5c0.2-0.4-0.3-0.7-0.6-0.3c-0.7,1-1.9,1.9-2.8,2.6c-1.2,0.9-2.6,1.6-3.9,2.3
			c-3,1.5-6.3,2.7-9.5,3.6c-1,0.3-1.9,0.5-2.9,0.8c2.7-1.4,5.3-3.2,7.9-4.9c3.5-2.2,7.1-4.1,10.9-5.7c1.1-0.5,2.2-0.9,3.3-1.3
			c0.7-0.3,1.5-0.5,2.2-0.8C223.2,4.4,222.3,5.9,221.1,7.2L221.1,7.2z"/>
	</g>
</g>
</svg>
